<svg xmlns="http://www.w3.org/2000/svg" version="1.1" xmlns:xlink="http://www.w3.org/1999/xlink" width="256" height="256"><svg width="256" height="256" viewBox="0 0 256 256" fill="none" xmlns="http://www.w3.org/2000/svg">
<path d="M213.333 2.53418H42.6667C19.1025 2.53418 0 21.6367 0 45.2008V213.333C0 236.897 19.1025 256 42.6667 256H213.333C236.897 256 256 236.897 256 213.333V45.2008C256 21.6367 236.897 2.53418 213.333 2.53418Z" fill="black"></path>
<path d="M122.053 208.931C112.355 208.931 103.795 206.481 96.3706 201.582C88.9466 196.633 83.138 189.664 78.9464 180.674C74.7548 171.633 72.6582 160.952 72.6582 148.628C72.6582 136.405 74.7548 125.799 78.9464 116.81C83.138 107.82 88.9714 100.875 96.4466 95.9763C103.921 91.0773 112.558 88.6282 122.355 88.6282C129.931 88.6282 135.916 89.8903 140.31 92.4162C144.755 94.8908 148.138 97.7188 150.462 100.901C152.836 104.032 154.679 106.608 155.992 108.628H157.507V51.3555H175.386V206.507H158.113V188.628H155.992C154.679 190.749 152.81 193.426 150.386 196.659C147.961 199.84 144.502 202.693 140.007 205.219C135.512 207.694 129.527 208.931 122.053 208.931ZM124.477 192.871C131.648 192.871 137.709 191.002 142.659 187.264C147.608 183.476 151.371 178.25 153.947 171.582C156.522 164.865 157.81 157.112 157.81 148.325C157.81 139.638 156.548 132.037 154.022 125.522C151.497 118.957 147.759 113.855 142.81 110.219C137.861 106.532 131.75 104.689 124.477 104.689C116.901 104.689 110.588 106.633 105.537 110.522C100.537 114.36 96.7743 119.588 94.2492 126.204C91.7746 132.769 90.5372 140.143 90.5372 148.325C90.5372 156.608 91.8002 164.133 94.3252 170.901C96.9005 177.618 100.688 182.972 105.689 186.961C110.739 190.901 117.002 192.871 124.477 192.871Z" fill="white"></path>
</svg><style>@media (prefers-color-scheme: light) { :root { filter: none; } }
@media (prefers-color-scheme: dark) { :root { filter: none; } }
</style></svg>
