<svg width="24" height="24" viewBox="0 0 24 24" fill="none" xmlns="http://www.w3.org/2000/svg">
<g clip-path="url(#clip0_267_2)">
<mask id="mask0_267_2" style="mask-type:luminance" maskUnits="userSpaceOnUse" x="0" y="0" width="24" height="24">
<path d="M24 0H0V24H24V0Z" fill="white"/>
</mask>
<g mask="url(#mask0_267_2)">
<path d="M20 0H4C1.79086 0 0 1.80877 0 4.04001V19.96C0 22.1913 1.79086 24 4 24H20C22.2091 24 24 22.1913 24 19.96V4.04001C24 1.80877 22.2091 0 20 0Z" fill="black"/>
<path d="M11.4425 19.5432C10.5334 19.5432 9.73081 19.3112 9.03481 18.8473C8.33881 18.3786 7.79425 17.7188 7.40129 16.8676C7.00833 16.0115 6.81177 15.0001 6.81177 13.8331C6.81177 12.6759 7.00833 11.6716 7.40129 10.8204C7.79425 9.96917 8.34113 9.31159 9.04193 8.84772C9.74265 8.38384 10.5523 8.15195 11.4709 8.15195C12.1811 8.15195 12.7422 8.27145 13.1541 8.51062C13.5708 8.74494 13.888 9.01271 14.1058 9.31401C14.3284 9.61047 14.5012 9.8544 14.6243 10.0456H14.7663V4.62268H16.4425V19.3136H14.8231V17.6206H14.6243C14.5012 17.8215 14.326 18.075 14.0987 18.3811C13.8714 18.6823 13.5471 18.9525 13.1257 19.1917C12.7043 19.426 12.1432 19.5432 11.4425 19.5432ZM11.6698 18.0224C12.3421 18.0224 12.9102 17.8455 13.3743 17.4916C13.8383 17.1329 14.191 16.638 14.4326 16.0067C14.674 15.3707 14.7947 14.6366 14.7947 13.8044C14.7947 12.9819 14.6764 12.2623 14.4396 11.6454C14.2029 11.0237 13.8525 10.5406 13.3885 10.1963C12.9245 9.84721 12.3516 9.67269 11.6698 9.67269C10.9595 9.67269 10.3677 9.85675 9.89417 10.225C9.42545 10.5885 9.07265 11.0835 8.83593 11.7099C8.60393 12.3316 8.48793 13.0298 8.48793 13.8044C8.48793 14.5888 8.60633 15.3013 8.84305 15.9421C9.08449 16.5782 9.43961 17.0851 9.90841 17.4629C10.3818 17.836 10.969 18.0224 11.6698 18.0224Z" fill="white"/>
</g>
</g>
<defs>
<clipPath id="clip0_267_2">
<rect width="24" height="24" fill="white"/>
</clipPath>
</defs>
</svg>
