<svg viewBox="0 0 760 345" xmlns="http://www.w3.org/2000/svg" font-family="Inter, ui-sans-serif, system-ui, sans-serif">
  <circle cx="380" cy="58" r="42" fill="#6176F3"/>
  <text x="380" y="54" text-anchor="middle" fill="#ffffff" font-size="16" font-weight="600">LLM</text>
  <text x="380" y="72" text-anchor="middle" fill="#ffffff" font-size="9" opacity="0.85">INTELLIGENCE</text>
  <line x1="380" y1="104" x2="380" y2="126" stroke="#292524" stroke-width="1.2" stroke-dasharray="4 4" opacity="0.4"/>
  <line x1="130" y1="126" x2="630" y2="126" stroke="#292524" stroke-width="1.2" stroke-dasharray="4 4" opacity="0.4"/>
  <line x1="130" y1="126" x2="130" y2="150" stroke="#292524" stroke-width="1.2" stroke-dasharray="4 4" opacity="0.4"/>
  <line x1="380" y1="126" x2="380" y2="150" stroke="#292524" stroke-width="1.2" stroke-dasharray="4 4" opacity="0.4"/>
  <line x1="630" y1="126" x2="630" y2="150" stroke="#292524" stroke-width="1.2" stroke-dasharray="4 4" opacity="0.4"/>

  <rect x="15" y="152" width="230" height="172" rx="16" fill="none" stroke="#292524" stroke-width="1.2" opacity="0.35"/>
  <rect x="114" y="166" width="32" height="32" rx="9" fill="#6176F3" opacity="0.14"/>
  <circle cx="128" cy="180" r="6" fill="none" stroke="#6176F3" stroke-width="2"/>
  <line x1="132.5" y1="184.5" x2="138" y2="190" stroke="#6176F3" stroke-width="2" stroke-linecap="round"/>
  <text x="130" y="222" text-anchor="middle" fill="#292524" font-size="14" font-weight="600">Built-in tools</text>
  <text x="130" y="246" text-anchor="middle" fill="#292524" font-size="11" opacity="0.7">Native capabilities out of the box</text>
  <text x="130" y="270" text-anchor="middle" fill="#292524" font-size="11" opacity="0.7">web search · lead enrichment</text>
  <text x="130" y="288" text-anchor="middle" fill="#292524" font-size="11" opacity="0.7">transcription · OCR</text>
  <text x="130" y="306" text-anchor="middle" fill="#292524" font-size="11" opacity="0.7">image generation · webhooks</text>

  <rect x="265" y="152" width="230" height="172" rx="16" fill="none" stroke="#6176F3" stroke-width="1.4" opacity="0.9"/>
  <rect x="364" y="166" width="32" height="32" rx="9" fill="#6176F3" opacity="0.14"/>
  <rect x="371" y="173" width="8" height="8" rx="2" fill="none" stroke="#6176F3" stroke-width="1.8"/>
  <rect x="382" y="173" width="8" height="8" rx="2" fill="none" stroke="#6176F3" stroke-width="1.8"/>
  <rect x="371" y="184" width="8" height="8" rx="2" fill="none" stroke="#6176F3" stroke-width="1.8"/>
  <rect x="382" y="184" width="8" height="8" rx="2" fill="none" stroke="#6176F3" stroke-width="1.8"/>
  <text x="380" y="222" text-anchor="middle" fill="#292524" font-size="14" font-weight="600">Connected apps</text>
  <text x="380" y="246" text-anchor="middle" fill="#292524" font-size="11" opacity="0.7">Your existing stack — each app</text>
  <text x="380" y="264" text-anchor="middle" fill="#292524" font-size="11" opacity="0.7">comes with triggers and actions</text>
  <text x="380" y="288" text-anchor="middle" fill="#292524" font-size="11" opacity="0.7">Outlook · Teams · Salesforce</text>
  <text x="380" y="306" text-anchor="middle" fill="#292524" font-size="11" opacity="0.7">Snowflake · Excel · Jira · more</text>

  <rect x="515" y="152" width="230" height="172" rx="16" fill="none" stroke="#292524" stroke-width="1.2" opacity="0.35"/>
  <rect x="614" y="166" width="32" height="32" rx="9" fill="#6176F3" opacity="0.14"/>
  <text x="630" y="188" text-anchor="middle" fill="#6176F3" font-size="13" font-weight="700" font-family="ui-monospace, Menlo, monospace">&gt;_</text>
  <text x="630" y="222" text-anchor="middle" fill="#292524" font-size="14" font-weight="600">Sandbox computer</text>
  <text x="630" y="246" text-anchor="middle" fill="#292524" font-size="11" opacity="0.7">A full computer at the</text>
  <text x="630" y="264" text-anchor="middle" fill="#292524" font-size="11" opacity="0.7">agent's disposal</text>
  <text x="630" y="288" text-anchor="middle" fill="#292524" font-size="11" opacity="0.7">store &amp; transform files</text>
  <text x="630" y="306" text-anchor="middle" fill="#292524" font-size="11" opacity="0.7">write &amp; run Python</text>
</svg>