<svg viewBox="0 0 760 240" xmlns="http://www.w3.org/2000/svg" font-family="Inter, ui-sans-serif, system-ui, sans-serif">
  <defs>
    <marker id="dash-arrow" viewBox="0 0 10 10" refX="8" refY="5" markerWidth="7" markerHeight="7" orient="auto-start-reverse">
      <path d="M0,0 L10,5 L0,10 z" fill="#6176F3"/>
    </marker>
  </defs>

  <rect x="24" y="64" width="192" height="112" rx="14" fill="#6176F3"/>
  <text x="120" y="114" text-anchor="middle" fill="#ffffff" font-size="14" font-weight="600">You ask</text>
  <text x="120" y="134" text-anchor="middle" fill="#ffffff" font-size="14" font-weight="600">in chat</text>

  <line x1="216" y1="120" x2="264" y2="120" stroke="#6176F3" stroke-width="1.6" marker-end="url(#dash-arrow)"/>

  <rect x="272" y="64" width="216" height="112" rx="14" fill="none" stroke="#6176F3" stroke-width="1.6"/>
  <text x="380" y="98" text-anchor="middle" fill="#292524" font-size="14" font-weight="600">Your agent builds</text>
  <text x="380" y="116" text-anchor="middle" fill="#292524" font-size="14" font-weight="600">one page</text>
  <rect x="340" y="152" width="12" height="12" rx="2" fill="#6176F3"/>
  <rect x="358" y="140" width="12" height="24" rx="2" fill="#6176F3"/>
  <rect x="376" y="146" width="12" height="18" rx="2" fill="#6176F3"/>
  <rect x="394" y="132" width="12" height="32" rx="2" fill="#6176F3"/>

  <line x1="488" y1="120" x2="536" y2="120" stroke="#6176F3" stroke-width="1.6" marker-end="url(#dash-arrow)"/>

  <rect x="544" y="64" width="192" height="112" rx="14" fill="none" stroke="#6176F3" stroke-width="1.6"/>
  <text x="640" y="104" text-anchor="middle" fill="#292524" font-size="14" font-weight="600">You open it,</text>
  <text x="640" y="124" text-anchor="middle" fill="#292524" font-size="14" font-weight="600">share it,</text>
  <text x="640" y="144" text-anchor="middle" fill="#292524" font-size="14" font-weight="600">download it</text>
</svg>
