<svg viewBox="0 0 760 400" xmlns="http://www.w3.org/2000/svg" font-family="Inter, ui-sans-serif, system-ui, sans-serif">
  <rect x="290" y="10" width="180" height="44" rx="14" fill="#6176F3"/>
  <text x="380" y="29" text-anchor="middle" fill="#ffffff" font-size="9" font-weight="600" letter-spacing="1">SKILL</text>
  <text x="380" y="45" text-anchor="middle" fill="#ffffff" font-size="13" font-weight="600">ICP Definition</text>
  <line x1="380" y1="54" x2="380" y2="74" stroke="#6176F3" stroke-width="1.4" stroke-dasharray="4 4" opacity="0.7"/>
  <line x1="130" y1="74" x2="630" y2="74" stroke="#6176F3" stroke-width="1.4" stroke-dasharray="4 4" opacity="0.7"/>
  <line x1="130" y1="74" x2="130" y2="94" stroke="#6176F3" stroke-width="1.4" stroke-dasharray="4 4" opacity="0.7"/>
  <line x1="380" y1="74" x2="380" y2="94" stroke="#6176F3" stroke-width="1.4" stroke-dasharray="4 4" opacity="0.7"/>
  <line x1="630" y1="74" x2="630" y2="94" stroke="#6176F3" stroke-width="1.4" stroke-dasharray="4 4" opacity="0.7"/>
  <rect x="15" y="96" width="230" height="290" rx="16" fill="none" stroke="#292524" stroke-width="1.2" opacity="0.35"/>
  <text x="130" y="128" text-anchor="middle" fill="#292524" font-size="13" font-weight="600">Lead Qualifier</text>
  <text x="130" y="146" text-anchor="middle" fill="#292524" font-size="10" opacity="0.55">agent</text>
  <rect x="35" y="162" width="190" height="46" rx="10" fill="none" stroke="#292524" stroke-width="1.1" opacity="0.4"/>
  <text x="130" y="189" text-anchor="middle" fill="#292524" font-size="11" opacity="0.75">Fetch new leads</text>
  <rect x="35" y="218" width="190" height="46" rx="10" fill="#6176F3" opacity="0.14"/>
  <rect x="35" y="218" width="190" height="46" rx="10" fill="none" stroke="#6176F3" stroke-width="1.6"/>
  <text x="130" y="238" text-anchor="middle" fill="#6176F3" font-size="8" font-weight="600" letter-spacing="1">SKILL</text>
  <text x="130" y="254" text-anchor="middle" fill="#292524" font-size="11" font-weight="600">ICP Definition</text>
  <rect x="35" y="274" width="190" height="46" rx="10" fill="none" stroke="#292524" stroke-width="1.1" opacity="0.4"/>
  <text x="130" y="301" text-anchor="middle" fill="#292524" font-size="11" opacity="0.75">Score &amp; route</text>
  <rect x="265" y="96" width="230" height="290" rx="16" fill="none" stroke="#292524" stroke-width="1.2" opacity="0.35"/>
  <text x="380" y="128" text-anchor="middle" fill="#292524" font-size="13" font-weight="600">Outreach Writer</text>
  <text x="380" y="146" text-anchor="middle" fill="#292524" font-size="10" opacity="0.55">agent</text>
  <rect x="285" y="162" width="190" height="46" rx="10" fill="none" stroke="#292524" stroke-width="1.1" opacity="0.4"/>
  <text x="380" y="189" text-anchor="middle" fill="#292524" font-size="11" opacity="0.75">Pick target accounts</text>
  <rect x="285" y="218" width="190" height="46" rx="10" fill="#6176F3" opacity="0.14"/>
  <rect x="285" y="218" width="190" height="46" rx="10" fill="none" stroke="#6176F3" stroke-width="1.6"/>
  <text x="380" y="238" text-anchor="middle" fill="#6176F3" font-size="8" font-weight="600" letter-spacing="1">SKILL</text>
  <text x="380" y="254" text-anchor="middle" fill="#292524" font-size="11" font-weight="600">ICP Definition</text>
  <rect x="285" y="274" width="190" height="46" rx="10" fill="none" stroke="#292524" stroke-width="1.1" opacity="0.4"/>
  <text x="380" y="301" text-anchor="middle" fill="#292524" font-size="11" opacity="0.75">Draft outreach</text>
  <rect x="515" y="96" width="230" height="290" rx="16" fill="none" stroke="#292524" stroke-width="1.2" opacity="0.35"/>
  <text x="630" y="128" text-anchor="middle" fill="#292524" font-size="13" font-weight="600">Pipeline Report</text>
  <text x="630" y="146" text-anchor="middle" fill="#292524" font-size="10" opacity="0.55">agent</text>
  <rect x="535" y="162" width="190" height="46" rx="10" fill="none" stroke="#292524" stroke-width="1.1" opacity="0.4"/>
  <text x="630" y="189" text-anchor="middle" fill="#292524" font-size="11" opacity="0.75">Query CRM</text>
  <rect x="535" y="218" width="190" height="46" rx="10" fill="#6176F3" opacity="0.14"/>
  <rect x="535" y="218" width="190" height="46" rx="10" fill="none" stroke="#6176F3" stroke-width="1.6"/>
  <text x="630" y="238" text-anchor="middle" fill="#6176F3" font-size="8" font-weight="600" letter-spacing="1">SKILL</text>
  <text x="630" y="254" text-anchor="middle" fill="#292524" font-size="11" font-weight="600">ICP Definition</text>
  <rect x="535" y="274" width="190" height="46" rx="10" fill="none" stroke="#292524" stroke-width="1.1" opacity="0.4"/>
  <text x="630" y="301" text-anchor="middle" fill="#292524" font-size="11" opacity="0.75">Post weekly report</text>
</svg>